<mxfile host="Electron" agent="Mozilla/5.0 (Macintosh; Intel Mac OS X 10_15_7) AppleWebKit/537.36 (KHTML, like Gecko) draw.io/26.0.4 Chrome/128.0.6613.186 Electron/32.2.5 Safari/537.36" version="26.0.4">
  <diagram name="Страница — 1" id="-1bTtDRLrD2sbuSupK6Z">
    <mxGraphModel dx="7056" dy="3977" grid="1" gridSize="10" guides="1" tooltips="1" connect="1" arrows="1" fold="1" page="1" pageScale="1" pageWidth="1169" pageHeight="827" math="0" shadow="0">
      <root>
        <mxCell id="0" />
        <mxCell id="1" parent="0" />
        <mxCell id="WYM-cAYEc0dEJcSYJcjf-1" value="" style="shape=rect;fillColor=#fff2cc;strokeColor=none;fontSize=24;html=1;whiteSpace=wrap;align=left;verticalAlign=top;spacing=5;rounded=0;" vertex="1" parent="1">
          <mxGeometry x="-3330" y="-1270" width="1700" height="100" as="geometry" />
        </mxCell>
        <mxCell id="WYM-cAYEc0dEJcSYJcjf-2" value="" style="shape=rect;fillColor=#fff2cc;strokeColor=none;fontSize=24;html=1;whiteSpace=wrap;align=left;verticalAlign=top;spacing=5;rounded=0;" vertex="1" parent="1">
          <mxGeometry x="-3330" y="-1432.8" width="1700" height="142.8" as="geometry" />
        </mxCell>
        <mxCell id="WYM-cAYEc0dEJcSYJcjf-3" value="Настройка и подключение каталога данных к DWH, определение доменов и ответственных" style="shape=rect;fillColor=#ffe6cc;strokeColor=#d79b00;fontSize=18;html=1;whiteSpace=wrap;align=left;verticalAlign=top;spacing=5;rounded=0;" vertex="1" parent="1">
          <mxGeometry x="-3320" y="-1401.4" width="390" height="80" as="geometry" />
        </mxCell>
        <mxCell id="WYM-cAYEc0dEJcSYJcjf-5" value="Команда каталога данных" style="rounded=0;whiteSpace=wrap;html=1;fillColor=#f5f5f5;fontColor=#333333;strokeColor=#666666;fontSize=18;" vertex="1" parent="1">
          <mxGeometry x="-3460" y="-1432.8" width="120" height="142.8" as="geometry" />
        </mxCell>
        <mxCell id="WYM-cAYEc0dEJcSYJcjf-6" value="Команда Airflow" style="rounded=0;whiteSpace=wrap;html=1;fillColor=#f5f5f5;fontColor=#333333;strokeColor=#666666;fontSize=18;" vertex="1" parent="1">
          <mxGeometry x="-3460" y="-1270" width="120" height="100" as="geometry" />
        </mxCell>
        <mxCell id="WYM-cAYEc0dEJcSYJcjf-7" value="Q1" style="shape=step;perimeter=stepPerimeter;whiteSpace=wrap;html=1;fixedSize=1;size=10;fillColor=#f5f5f5;strokeColor=#666666;fontSize=18;fontStyle=1;align=center;rounded=0;fontColor=#333333;" vertex="1" parent="1">
          <mxGeometry x="-3330" y="-1526" width="410" height="74.4" as="geometry" />
        </mxCell>
        <mxCell id="WYM-cAYEc0dEJcSYJcjf-8" value="Изучение и перенос сценариев из интеграционной шины" style="shape=rect;fillColor=#ffe6cc;strokeColor=#d79b00;fontSize=18;html=1;whiteSpace=wrap;align=center;verticalAlign=top;spacing=5;rounded=0;" vertex="1" parent="1">
          <mxGeometry x="-2890" y="-1250" width="400" height="60" as="geometry" />
        </mxCell>
        <mxCell id="WYM-cAYEc0dEJcSYJcjf-9" value="2025" style="shape=step;perimeter=stepPerimeter;whiteSpace=wrap;html=1;fixedSize=1;size=10;fillColor=#f5f5f5;strokeColor=#666666;fontSize=18;fontStyle=1;align=center;rounded=0;fontColor=#333333;" vertex="1" parent="1">
          <mxGeometry x="-3330" y="-1620" width="1700" height="74.4" as="geometry" />
        </mxCell>
        <mxCell id="WYM-cAYEc0dEJcSYJcjf-10" value="Q2" style="shape=step;perimeter=stepPerimeter;whiteSpace=wrap;html=1;fixedSize=1;size=10;fillColor=#f5f5f5;strokeColor=#666666;fontSize=18;fontStyle=1;align=center;rounded=0;fontColor=#333333;" vertex="1" parent="1">
          <mxGeometry x="-2900" y="-1526" width="410" height="74.4" as="geometry" />
        </mxCell>
        <mxCell id="WYM-cAYEc0dEJcSYJcjf-12" value="Q3" style="shape=step;perimeter=stepPerimeter;whiteSpace=wrap;html=1;fixedSize=1;size=10;fillColor=#f5f5f5;strokeColor=#666666;fontSize=18;fontStyle=1;align=center;rounded=0;fontColor=#333333;" vertex="1" parent="1">
          <mxGeometry x="-2470" y="-1526" width="410" height="74.4" as="geometry" />
        </mxCell>
        <mxCell id="WYM-cAYEc0dEJcSYJcjf-13" value="Q4" style="shape=step;perimeter=stepPerimeter;whiteSpace=wrap;html=1;fixedSize=1;size=10;fillColor=#f5f5f5;strokeColor=#666666;fontSize=18;fontStyle=1;align=center;rounded=0;fontColor=#333333;" vertex="1" parent="1">
          <mxGeometry x="-2040" y="-1526" width="410" height="74.4" as="geometry" />
        </mxCell>
        <mxCell id="WYM-cAYEc0dEJcSYJcjf-14" value="" style="shape=rect;fillColor=#fff2cc;strokeColor=none;fontSize=24;html=1;whiteSpace=wrap;align=left;verticalAlign=top;spacing=5;rounded=0;" vertex="1" parent="1">
          <mxGeometry x="-3330" y="-1150" width="1700" height="100" as="geometry" />
        </mxCell>
        <mxCell id="WYM-cAYEc0dEJcSYJcjf-15" value="Команда озера данных" style="rounded=0;whiteSpace=wrap;html=1;fillColor=#f5f5f5;fontColor=#333333;strokeColor=#666666;fontSize=18;" vertex="1" parent="1">
          <mxGeometry x="-3460" y="-1150" width="120" height="100" as="geometry" />
        </mxCell>
        <mxCell id="WYM-cAYEc0dEJcSYJcjf-16" value="Подготовка и настройка озера данных" style="shape=rect;fillColor=#ffe6cc;strokeColor=#d79b00;fontSize=18;html=1;whiteSpace=wrap;align=center;verticalAlign=top;spacing=5;rounded=0;" vertex="1" parent="1">
          <mxGeometry x="-3310" y="-1130" width="380" height="60" as="geometry" />
        </mxCell>
        <mxCell id="WYM-cAYEc0dEJcSYJcjf-17" value="" style="shape=rect;fillColor=#fff2cc;strokeColor=none;fontSize=24;html=1;whiteSpace=wrap;align=left;verticalAlign=top;spacing=5;rounded=0;" vertex="1" parent="1">
          <mxGeometry x="-3330" y="-1030" width="1700" height="100" as="geometry" />
        </mxCell>
        <mxCell id="WYM-cAYEc0dEJcSYJcjf-18" value="Команда сервисов ФинТех" style="rounded=0;whiteSpace=wrap;html=1;fillColor=#f5f5f5;fontColor=#333333;strokeColor=#666666;fontSize=18;" vertex="1" parent="1">
          <mxGeometry x="-3460" y="-1030" width="120" height="100" as="geometry" />
        </mxCell>
        <mxCell id="WYM-cAYEc0dEJcSYJcjf-19" value="Подключение к озеру данных, перевод сервисов на независимое хранение" style="shape=rect;fillColor=#ffe6cc;strokeColor=#d79b00;fontSize=18;html=1;whiteSpace=wrap;align=center;verticalAlign=top;spacing=5;rounded=0;" vertex="1" parent="1">
          <mxGeometry x="-2890" y="-1010" width="830" height="60" as="geometry" />
        </mxCell>
        <mxCell id="WYM-cAYEc0dEJcSYJcjf-20" value="Подключение к озеру данных" style="shape=rect;fillColor=#ffe6cc;strokeColor=#d79b00;fontSize=18;html=1;whiteSpace=wrap;align=left;verticalAlign=top;spacing=5;rounded=0;" vertex="1" parent="1">
          <mxGeometry x="-2890" y="-1391.4" width="820" height="60" as="geometry" />
        </mxCell>
        <mxCell id="WYM-cAYEc0dEJcSYJcjf-21" value="" style="shape=rect;fillColor=#fff2cc;strokeColor=none;fontSize=24;html=1;whiteSpace=wrap;align=left;verticalAlign=top;spacing=5;rounded=0;" vertex="1" parent="1">
          <mxGeometry x="-3330" y="-910" width="1700" height="100" as="geometry" />
        </mxCell>
        <mxCell id="WYM-cAYEc0dEJcSYJcjf-22" value="Команда сервисов ИИ" style="rounded=0;whiteSpace=wrap;html=1;fillColor=#f5f5f5;fontColor=#333333;strokeColor=#666666;fontSize=18;" vertex="1" parent="1">
          <mxGeometry x="-3460" y="-910" width="120" height="100" as="geometry" />
        </mxCell>
        <mxCell id="WYM-cAYEc0dEJcSYJcjf-23" value="Подключение к озеру данных" style="shape=rect;fillColor=#ffe6cc;strokeColor=#d79b00;fontSize=18;html=1;whiteSpace=wrap;align=center;verticalAlign=top;spacing=5;rounded=0;" vertex="1" parent="1">
          <mxGeometry x="-2890" y="-890" width="830" height="60" as="geometry" />
        </mxCell>
        <mxCell id="WYM-cAYEc0dEJcSYJcjf-24" value="" style="shape=rect;fillColor=#fff2cc;strokeColor=none;fontSize=24;html=1;whiteSpace=wrap;align=left;verticalAlign=top;spacing=5;rounded=0;" vertex="1" parent="1">
          <mxGeometry x="-3330" y="-790" width="1700" height="100" as="geometry" />
        </mxCell>
        <mxCell id="WYM-cAYEc0dEJcSYJcjf-25" value="Команда BI" style="rounded=0;whiteSpace=wrap;html=1;fillColor=#f5f5f5;fontColor=#333333;strokeColor=#666666;fontSize=18;" vertex="1" parent="1">
          <mxGeometry x="-3460" y="-790" width="120" height="100" as="geometry" />
        </mxCell>
        <mxCell id="WYM-cAYEc0dEJcSYJcjf-26" value="Подключение к озеру данных" style="shape=rect;fillColor=#ffe6cc;strokeColor=#d79b00;fontSize=18;html=1;whiteSpace=wrap;align=center;verticalAlign=top;spacing=5;rounded=0;" vertex="1" parent="1">
          <mxGeometry x="-2890" y="-770" width="830" height="60" as="geometry" />
        </mxCell>
        <mxCell id="WYM-cAYEc0dEJcSYJcjf-27" value="Донастройка и внедрение каталога, обучение сотрудников" style="shape=rect;fillColor=#ffe6cc;strokeColor=#d79b00;fontSize=18;html=1;whiteSpace=wrap;align=left;verticalAlign=top;spacing=5;rounded=0;" vertex="1" parent="1">
          <mxGeometry x="-2040" y="-1391.4" width="400" height="60" as="geometry" />
        </mxCell>
        <mxCell id="WYM-cAYEc0dEJcSYJcjf-28" value="" style="shape=rect;fillColor=#fff2cc;strokeColor=none;fontSize=24;html=1;whiteSpace=wrap;align=left;verticalAlign=top;spacing=5;rounded=0;" vertex="1" parent="1">
          <mxGeometry x="-3330" y="-670" width="1700" height="100" as="geometry" />
        </mxCell>
        <mxCell id="WYM-cAYEc0dEJcSYJcjf-29" value="Команда медицинской системы" style="rounded=0;whiteSpace=wrap;html=1;fillColor=#f5f5f5;fontColor=#333333;strokeColor=#666666;fontSize=18;" vertex="1" parent="1">
          <mxGeometry x="-3460" y="-670" width="120" height="100" as="geometry" />
        </mxCell>
        <mxCell id="WYM-cAYEc0dEJcSYJcjf-30" value="Подключение к озеру данных, перевод сервисов на независимое хранение" style="shape=rect;fillColor=#ffe6cc;strokeColor=#d79b00;fontSize=18;html=1;whiteSpace=wrap;align=center;verticalAlign=top;spacing=5;rounded=0;" vertex="1" parent="1">
          <mxGeometry x="-2890" y="-650" width="830" height="60" as="geometry" />
        </mxCell>
      </root>
    </mxGraphModel>
  </diagram>
</mxfile>
